<svg xmlns="http://www.w3.org/2000/svg" viewBox="0 0 100 100">
  <!-- Gear schematic -->
  <g stroke="#f97316" stroke-width="2" fill="none">
    <circle cx="50" cy="50" r="25"/>
    <line x1="50" y1="25" x2="50" y2="15"/>
    <line x1="50" y1="85" x2="50" y2="75"/>
    <line x1="25" y1="50" x2="15" y2="50"/>
    <line x1="85" y1="50" x2="75" y2="50"/>
    <line x1="32" y1="32" x2="25" y2="25"/>
    <line x1="68" y1="68" x2="75" y2="75"/>
    <line x1="68" y1="32" x2="75" y2="25"/>
    <line x1="32" y1="68" x2="25" y2="75"/>
  </g>
  <!-- Grid background -->
  <g stroke="#475569" stroke-width="0.5" stroke-dasharray="1,1" fill="none">
    <path d="M0,10 L100,10 M0,20 L100,20 M0,30 L100,30 M0,40 L100,40 M0,50 L100,50 M0,60 L100,60 M0,70 L100,70 M0,80 L100,80 M0,90 L100,90"/>
    <path d="M10,0 L10,100 M20,0 L20,100 M30,0 L30,100 M40,0 L40,100 M50,0 L50,100 M60,0 L60,100 M70,0 L70,100 M80,0 L80,100 M90,0 L90,100"/>
  </g>
</svg>